/* XPM */
static char * close_prelight_xpm[] = {
"24 24 24 1",
" 	c #303030",
".	c #323232",
"+	c #474646",
"@	c #535252",
"#	c #5B5A5A",
"$	c #5E5D5D",
"%	c #474747",
"&	c #595858",
"*	c #5F5E5E",
"=	c #353535",
"-	c #4E4E4E",
";	c #D4D4D4",
">	c #D8D8D8",
",	c #6B6A6A",
"'	c #D3D2D2",
")	c #D9D9D9",
"!	c #F7F7F7",
"~	c #DCDCDC",
"{	c #6C6B6B",
"]	c #DDDDDD",
"^	c #DFDFDF",
"/	c #6E6D6D",
"(	c #6D6C6C",
"_	c #D3D3D3",
"                        ",
"                        ",
"       .+@#$$#@+.       ",
"      %&********&%      ",
"    =-************-=    ",
"    -**************-    ",
"   %****************%   ",
"  .&****************&.  ",
"  +*****;>,**,>'*****+  ",
"  @*****)!~,,~!>*****@  ",
"  #*****{]!~~!~{*****#  ",
"  $******,~!!^/******$  ",
"  $******,~!!^(******$  ",
"  #*****,~!]]!~,*****#  ",
"  @*****>!]{{]!>*****@  ",
"  +*****;){**{)_*****+  ",
"  .&****************&.  ",
"   %****************%   ",
"    -**************-    ",
"    =-************-=    ",
"      %&********&%      ",
"       .+@#$$#@+.       ",
"                        ",
"                        "};
