/* XPM */
static char * close_inactive_xpm[] = {
"24 24 13 1",
" 	c #303030",
".	c #C4C4C4",
"+	c #C9C9C9",
"@	c #404040",
"#	c #CACACA",
"$	c #C3C3C3",
"%	c #CBCBCB",
"&	c #F1F1F1",
"*	c #CFCFCF",
"=	c #D0D0D0",
"-	c #D2D2D2",
";	c #434343",
">	c #424242",
"                        ",
"                        ",
"                        ",
"                        ",
"                        ",
"                        ",
"                        ",
"                        ",
"        .+@  @#$        ",
"        %&*@@*&#        ",
"        @=&**&*@        ",
"         @*&&-;         ",
"         @*&&->         ",
"        @*&==&*@        ",
"        #&=@@=&#        ",
"        .%@  @%.        ",
"                        ",
"                        ",
"                        ",
"                        ",
"                        ",
"                        ",
"                        ",
"                        "};
