/* XPM */
static char * close_pressed_xpm[] = {
"24 24 22 1",
" 	c #303030",
".	c #313131",
"+	c #3C3C3C",
"@	c #434343",
"#	c #474747",
"$	c #4A4A4A",
"%	c #464646",
"&	c #323232",
"*	c #404040",
"=	c #CFCFCF",
"-	c #D3D3D3",
";	c #585858",
">	c #D4D4D4",
",	c #CECECE",
"'	c #D5D5D5",
")	c #F7F7F7",
"!	c #D9D9D9",
"~	c #595959",
"{	c #D8D8D8",
"]	c #DCDCDC",
"^	c #5B5B5B",
"/	c #5A5A5A",
"                        ",
"                        ",
"       .+@#$$#@+.       ",
"      +%$$$$$$$$%+      ",
"    &*$$$$$$$$$$$$*&    ",
"    *$$$$$$$$$$$$$$*    ",
"   +$$$$$$$$$$$$$$$$+   ",
"  .%$$$$$$$$$$$$$$$$%.  ",
"  +$$$$$=-;$$;>,$$$$$+  ",
"  @$$$$$')!;;!)>$$$$$@  ",
"  #$$$$$~!)!!)!~$$$$$#  ",
"  $$$$$$$;{))]^$$$$$$$  ",
"  $$$$$$$;{))]/$$$$$$$  ",
"  #$$$$$;!)!!)!;$$$$$#  ",
"  @$$$$$>)!~~!)>$$$$$@  ",
"  +$$$$$='~$$~',$$$$$+  ",
"  .%$$$$$$$$$$$$$$$$%.  ",
"   +$$$$$$$$$$$$$$$$+   ",
"    *$$$$$$$$$$$$$$*    ",
"    &*$$$$$$$$$$$$*&    ",
"      +%$$$$$$$$%+      ",
"       .+@#$$#@+.       ",
"                        ",
"                        "};
