/* XPM */
static char * close_active_xpm[] = {
"24 24 27 1",
" 	c #303030",
".	c #40332F",
"+	c #9B5227",
"@	c #C4631F",
"#	c #DB6D17",
"$	c #E67212",
"%	c #9D5327",
"&	c #D76B19",
"*	c #E87311",
"=	c #52382E",
"-	c #B55D22",
";	c #ECD1BB",
">	c #ECD5C1",
",	c #E87D24",
"'	c #E87E24",
")	c #ECD6C2",
"!	c #ECD0B9",
"~	c #EDEDED",
"{	c #ECD8C7",
"]	c #ECD8C8",
"^	c #ECD4C0",
"/	c #E97E24",
"(	c #ECD7C6",
"_	c #ECDACB",
":	c #E87E25",
"<	c #E87F26",
"[	c #EBD0B8",
"                        ",
"                        ",
"       .+@#$$#@+.       ",
"      %&********&%      ",
"    =-************-=    ",
"    -**************-    ",
"   %****************%   ",
"  .&****************&.  ",
"  +*****;>,**')!*****+  ",
"  @*****>~{,,]~^*****@  ",
"  #*****,]~{{~{,*****#  ",
"  $******/(~~_:******$  ",
"  $******/(~~_<******$  ",
"  #*****,]~{{~],*****#  ",
"  @*****)~],,{~>*****@  ",
"  +*****!>'**,>[*****+  ",
"  .&****************&.  ",
"   %****************%   ",
"    -**************-    ",
"    =-************-=    ",
"      %&********&%      ",
"       .+@#$$#@+.       ",
"                        ",
"                        "};
