/* XPM */
static char * maximize_active_xpm[] = {
"24 24 2 1",
" 	c #303030",
".	c #F7F7F7",
"                        ",
"                        ",
"                        ",
"                        ",
"                        ",
"                        ",
"                        ",
"                        ",
"           ..           ",
"           ..           ",
"           ..           ",
"        ........        ",
"        ........        ",
"           ..           ",
"           ..           ",
"           ..           ",
"                        ",
"                        ",
"                        ",
"                        ",
"                        ",
"                        ",
"                        ",
"                        "};
