/* XPM */
static char * maximize_toggled_pressed_xpm[] = {
"24 24 12 1",
" 	c #303030",
".	c #313131",
"+	c #3C3C3C",
"@	c #434343",
"#	c #474747",
"$	c #4A4A4A",
"%	c #464646",
"&	c #323232",
"*	c #404040",
"=	c #F7F7F7",
"-	c #F6F6F6",
";	c #F5F5F5",
"                        ",
"                        ",
"       .+@#$$#@+.       ",
"      +%$$$$$$$$%+      ",
"    &*$$$$$$$$$$$$*&    ",
"    *$$$$$$$$$$$$$$*    ",
"   +$$$$$$$$$$$$$$$$+   ",
"  .%$$$$$$$$$$$$$$$$%.  ",
"  +$$$$$$$$$$$$$$$$$$+  ",
"  @$$$$$$======$$$$$$@  ",
"  #$$$$$$==--==$$$$$$#  ",
"  $$$$$$$=;$$==$$$$$$$  ",
"  $$$$$$$=;$$==$$$$$$$  ",
"  #$$$$$$======$$$$$$#  ",
"  @$$$$$$======$$$$$$@  ",
"  +$$$$$$$$$$$$$$$$$$+  ",
"  .%$$$$$$$$$$$$$$$$%.  ",
"   +$$$$$$$$$$$$$$$$+   ",
"    *$$$$$$$$$$$$$$*    ",
"    &*$$$$$$$$$$$$*&    ",
"      +%$$$$$$$$%+      ",
"       .+@#$$#@+.       ",
"                        ",
"                        "};
