/* XPM */
static char * shade_prelight_xpm[] = {
"24 24 17 1",
" 	c #303030",
".	c #323232",
"+	c #474646",
"@	c #535252",
"#	c #5B5A5A",
"$	c #5E5D5D",
"%	c #474747",
"&	c #595858",
"*	c #5F5E5E",
"=	c #353535",
"-	c #4E4E4E",
";	c #E0E1E2",
">	c #FCFCFC",
",	c #6F6D6C",
"'	c #6B6868",
")	c #686565",
"!	c #726F6F",
"                        ",
"                        ",
"       .+@#$$#@+.       ",
"      %&********&%      ",
"    =-************-=    ",
"    -**************-    ",
"   %****************%   ",
"  .&****************&.  ",
"  +********;;********+  ",
"  @*******;>>;*******@  ",
"  #******;>>>>;******#  ",
"  $*****;>;>>;>;*****$  ",
"  $*****,;'>>);!*****$  ",
"  #********>>********#  ",
"  @********>>********@  ",
"  +********>>********+  ",
"  .&****************&.  ",
"   %****************%   ",
"    -**************-    ",
"    =-************-=    ",
"      %&********&%      ",
"       .+@#$$#@+.       ",
"                        ",
"                        "};
