/* XPM */
static char * stick_toggled_prelight_xpm[] = {
"24 24 25 1",
" 	c #303030",
".	c #323232",
"+	c #474646",
"@	c #535252",
"#	c #5B5A5A",
"$	c #5E5D5D",
"%	c #474747",
"&	c #595858",
"*	c #5F5E5E",
"=	c #353535",
"-	c #4E4E4E",
";	c #666463",
">	c #B9B8B9",
",	c #FCFCFC",
"'	c #BBBBBC",
")	c #6C6A69",
"!	c #DEDFE1",
"~	c #DFE0E2",
"{	c #BDBDBE",
"]	c #666363",
"^	c #BFBFC0",
"/	c #B8B8B9",
"(	c #B8B7B8",
"_	c #DEDEE0",
":	c #666362",
"                        ",
"                        ",
"       .+@#$$#@+.       ",
"      %&********&%      ",
"    =-************-=    ",
"    -**************-    ",
"   %****************%   ",
"  .&****************&.  ",
"  +******;>,,')******+  ",
"  @*****;!,,,,~;*****@  ",
"  #*****>,{];^,/*****#  ",
"  $*****,,;**;,,*****$  ",
"  $*****,,;**;,,*****$  ",
"  #*****',^;;^,(*****#  ",
"  @*****)~,,,,_:*****@  ",
"  +******;/,,(:******+  ",
"  .&****************&.  ",
"   %****************%   ",
"    -**************-    ",
"    =-************-=    ",
"      %&********&%      ",
"       .+@#$$#@+.       ",
"                        ",
"                        "};
