/* XPM */
static char * stick_pressed_xpm[] = {
"24 24 23 1",
" 	c #303030",
".	c #313131",
"+	c #3C3C3C",
"@	c #434343",
"#	c #474747",
"$	c #4A4A4A",
"%	c #464646",
"&	c #323232",
"*	c #404040",
"=	c #696868",
"-	c #BCBCBE",
";	c #D8D8D8",
">	c #BEBFC1",
",	c #6F6E6E",
"'	c #D4D4D4",
")	c #FCFCFC",
"!	c #D5D5D5",
"~	c #BBBCBE",
"{	c #D7D7D7",
"]	c #D6D6D6",
"^	c #BBBBBD",
"/	c #D4D3D3",
"(	c #696767",
"                        ",
"                        ",
"       .+@#$$#@+.       ",
"      +%$$$$$$$$%+      ",
"    &*$$$$$$$$$$$$*&    ",
"    *$$$$$$$$$$$$$$*    ",
"   +$$$$$$$$$$$$$$$$+   ",
"  .%$$$$$$$$$$$$$$$$%.  ",
"  +$$$$$$=-;;>,$$$$$$+  ",
"  @$$$$$='))))!=$$$$$@  ",
"  #$$$$$-))))))~$$$$$#  ",
"  $$$$$$;)))))){$$$$$$  ",
"  $$$$$$;))))))]$$$$$$  ",
"  #$$$$$>))))))^$$$$$#  ",
"  @$$$$$,!))))/($$$$$@  ",
"  +$$$$$$=~{{^($$$$$$+  ",
"  .%$$$$$$$$$$$$$$$$%.  ",
"   +$$$$$$$$$$$$$$$$+   ",
"    *$$$$$$$$$$$$$$*    ",
"    &*$$$$$$$$$$$$*&    ",
"      +%$$$$$$$$%+      ",
"       .+@#$$#@+.       ",
"                        ",
"                        "};
