/* XPM */
static char * title_1_active_xpm[] = {
"4 28 2 1",
" 	c #4A4A4A",
".	c #303030",
"    ",
"....",
"....",
"....",
"....",
"....",
"....",
"....",
"....",
"....",
"....",
"....",
"....",
"....",
"....",
"....",
"....",
"....",
"....",
"....",
"....",
"....",
"....",
"....",
"....",
"....",
"....",
"...."};
