/* XPM */
static char * top_right_inactive_xpm[] = {
"7 28 9 1",
" 	c None",
".	c #4A4A4A",
"+	c #494949",
"@	c #444444",
"#	c #303030",
"$	c #3D3D3D",
"%	c #464646",
"&	c #3C3C3C",
"*	c #272727",
"...+@  ",
"####$% ",
"######&",
"######*",
"######*",
"######*",
"######*",
"######*",
"######*",
"######*",
"######*",
"######*",
"######*",
"######*",
"######*",
"######*",
"######*",
"######*",
"######*",
"######*",
"######*",
"######*",
"######*",
"######*",
"######*",
"######*",
"######*",
"######*"};
