/* XPM */
static char * close_pressed_xpm[] = {
"24 24 20 1",
" 	c #574F4A",
".	c #5A534E",
"+	c #5D5550",
"@	c #635C57",
"#	c #655E59",
"$	c #67605B",
"%	c #615A55",
"&	c #68615C",
"*	c #645D58",
"=	c #CFCFCF",
"-	c #D3D3D3",
";	c #D4D4D4",
">	c #CECECE",
",	c #D5D5D5",
"'	c #F7F7F7",
")	c #D9D9D9",
"!	c #D8D8D8",
"~	c #DCDCDC",
"{	c #655F5C",
"]	c #66605C",
"                        ",
"          .++.          ",
"       +@#$$$$#@+       ",
"     .%$&&&&&&&&$%.     ",
"    .*&&&&&&&&&&&&*.    ",
"   .*&&&&&&&&&&&&&&*.   ",
"   %&&&&&&&&&&&&&&&&%   ",
"  +$&&&&&&&&&&&&&&&&$+  ",
"  @&&&&&=-&&&&;>&&&&&@  ",
"  #&&&&&,')&&)';&&&&&#  ",
" .$&&&&&&)'))')&&&&&&$. ",
" +$&&&&&&&!''~{&&&&&&$+ ",
" +$&&&&&&&!''~]&&&&&&$+ ",
" .$&&&&&&)'))')&&&&&&$. ",
"  #&&&&&;')&&)';&&&&&#  ",
"  @&&&&&=,&&&&,>&&&&&@  ",
"  +$&&&&&&&&&&&&&&&&$+  ",
"   %&&&&&&&&&&&&&&&&%   ",
"   .*&&&&&&&&&&&&&&*.   ",
"    .*&&&&&&&&&&&&*.    ",
"     .%$&&&&&&&&$%.     ",
"       +@#$$$$#@+       ",
"          .++.          ",
"                        "};
