/* XPM */
static char * close_active_xpm[] = {
"24 24 27 1",
" 	c #574F4A",
".	c #855D46",
"+	c #B5713D",
"@	c #D07C37",
"#	c #D98134",
"$	c #C4773B",
"%	c #E5862F",
"&	c #EF8B2B",
"*	c #F18C2A",
"=	c #F28C2A",
"-	c #A16841",
";	c #E08431",
">	c #F18B2B",
",	c #F6DEC8",
"'	c #F6E1CD",
")	c #F2943B",
"!	c #F6E2CE",
"~	c #F6DDC6",
"{	c #F7F7F7",
"]	c #F6E4D3",
"^	c #F2953B",
"/	c #F6E5D4",
"(	c #F6E4D2",
"_	c #F6E6D7",
":	c #F2963E",
"<	c #F2963D",
"[	c #F6DEC7",
"                        ",
"                        ",
"        .+@##@+.        ",
"      .$%&*==*&%$.      ",
"     -;>========>;-     ",
"    -%============%-    ",
"   .;==============;.   ",
"   $>==============>$   ",
"  .%====,')==)!~====%.  ",
"  +&====!{]))]{!====&+  ",
"  @*====^/{]]{]^====*@  ",
"  #======)({{_:======#  ",
"  #======)({{_<======#  ",
"  @*====)]{//{])====*@  ",
"  +&====!{/^^/{!====&+  ",
"  .%====,!^==^![====%.  ",
"   $>==============>$   ",
"   .;==============;.   ",
"    -%============%-    ",
"     -;>========>;-     ",
"      .$%&*==*&%$.      ",
"        .+@##@+.        ",
"                        ",
"                        "};
