/* XPM */
static char * close_prelight_xpm[] = {
"24 24 19 1",
" 	c #574F4A",
".	c #5E5652",
"+	c #645C58",
"@	c #6F6864",
"#	c #746D69",
"$	c #77706C",
"%	c #78716D",
"&	c #6C6561",
"*	c #79726E",
"=	c #726B67",
"-	c #D4D4D4",
";	c #D8D8D8",
">	c #D3D2D2",
",	c #D9D9D9",
"'	c #F7F7F7",
")	c #DCDCDC",
"!	c #DDDDDD",
"~	c #DFDFDF",
"{	c #D3D3D3",
"                        ",
"          .++.          ",
"       +@#$%%$#@+       ",
"     .&$********$&.     ",
"    .=************=.    ",
"   .=**************=.   ",
"   &****************&   ",
"  +$****************$+  ",
"  @*****-;****;>*****@  ",
"  #*****,')**)';*****#  ",
" .$******!'))')******$. ",
" +%*******)''~*******%+ ",
" +%*******)''~*******%+ ",
" .$******)'!!')******$. ",
"  #*****;'!**!';*****#  ",
"  @*****-,****,{*****@  ",
"  +$****************$+  ",
"   &****************&   ",
"   .=**************=.   ",
"    .=************=.    ",
"     .&$********$&.     ",
"       +@#$%%$#@+       ",
"          .++.          ",
"                        "};
