/* XPM */
static char * maximize_active_xpm[] = {
"24 24 2 1",
" 	c #574F4A",
".	c #F7F7F7",
"                        ",
"                        ",
"                        ",
"                        ",
"                        ",
"                        ",
"                        ",
"                        ",
"           ..           ",
"           ..           ",
"           ..           ",
"        ........        ",
"        ........        ",
"           ..           ",
"           ..           ",
"           ..           ",
"                        ",
"                        ",
"                        ",
"                        ",
"                        ",
"                        ",
"                        ",
"                        "};
