/* XPM */
static char * maximize_toggled_pressed_xpm[] = {
"24 24 12 1",
" 	c #574F4A",
".	c #5A534E",
"+	c #5D5550",
"@	c #635C57",
"#	c #655E59",
"$	c #67605B",
"%	c #615A55",
"&	c #68615C",
"*	c #645D58",
"=	c #F7F7F7",
"-	c #F6F6F6",
";	c #F5F5F5",
"                        ",
"          .++.          ",
"       +@#$$$$#@+       ",
"     .%$&&&&&&&&$%.     ",
"    .*&&&&&&&&&&&&*.    ",
"   .*&&&&&&&&&&&&&&*.   ",
"   %&&&&&&&&&&&&&&&&%   ",
"  +$&&&&&&&&&&&&&&&&$+  ",
"  @&&&&&&&&&&&&&&&&&&@  ",
"  #&&&&&&======&&&&&&#  ",
" .$&&&&&&==--==&&&&&&$. ",
" +$&&&&&&=;&&==&&&&&&$+ ",
" +$&&&&&&=;&&==&&&&&&$+ ",
" .$&&&&&&======&&&&&&$. ",
"  #&&&&&&======&&&&&&#  ",
"  @&&&&&&&&&&&&&&&&&&@  ",
"  +$&&&&&&&&&&&&&&&&$+  ",
"   %&&&&&&&&&&&&&&&&%   ",
"   .*&&&&&&&&&&&&&&*.   ",
"    .*&&&&&&&&&&&&*.    ",
"     .%$&&&&&&&&$%.     ",
"       +@#$$$$#@+       ",
"          .++.          ",
"                        "};
