/* XPM */
static char * maximize_toggled_active_xpm[] = {
"24 24 4 1",
" 	c #574F4A",
".	c #F7F7F7",
"+	c #F6F6F6",
"@	c #F5F5F5",
"                        ",
"                        ",
"                        ",
"                        ",
"                        ",
"                        ",
"                        ",
"                        ",
"                        ",
"         ......         ",
"         ..++..         ",
"         .@  ..         ",
"         .@  ..         ",
"         ......         ",
"         ......         ",
"                        ",
"                        ",
"                        ",
"                        ",
"                        ",
"                        ",
"                        ",
"                        ",
"                        "};
