/* XPM */
static char * shade_toggled_prelight_xpm[] = {
"24 24 14 1",
" 	c #574F4A",
".	c #5E5652",
"+	c #645C58",
"@	c #6F6864",
"#	c #746D69",
"$	c #77706C",
"%	c #78716D",
"&	c #6C6561",
"*	c #79726E",
"=	c #726B67",
"-	c #FCFCFC",
";	c #78716E",
">	c #E0E1E2",
",	c #75706F",
"                        ",
"          .++.          ",
"       +@#$%%$#@+       ",
"     .&$********$&.     ",
"    .=************=.    ",
"   .=**************=.   ",
"   &****************&   ",
"  +$****************$+  ",
"  @********--********@  ",
"  #********--********#  ",
" .$********--********$. ",
" +%*****;>*--*>,*****%+ ",
" +%*****>->-->->*****%+ ",
" .$******>---->******$. ",
"  #*******>-->*******#  ",
"  @********>>********@  ",
"  +$****************$+  ",
"   &****************&   ",
"   .=**************=.   ",
"    .=************=.    ",
"     .&$********$&.     ",
"       +@#$%%$#@+       ",
"          .++.          ",
"                        "};
