/* XPM */
static char * shade_toggled_pressed_xpm[] = {
"24 24 11 1",
" 	c #574F4A",
".	c #5A534E",
"+	c #5D5550",
"@	c #635C57",
"#	c #655E59",
"$	c #67605B",
"%	c #615A55",
"&	c #68615C",
"*	c #645D58",
"=	c #FCFCFC",
"-	c #E0E1E2",
"                        ",
"          .++.          ",
"       +@#$$$$#@+       ",
"     .%$&&&&&&&&$%.     ",
"    .*&&&&&&&&&&&&*.    ",
"   .*&&&&&&&&&&&&&&*.   ",
"   %&&&&&&&&&&&&&&&&%   ",
"  +$&&&&&&&&&&&&&&&&$+  ",
"  @&&&&&&&&==&&&&&&&&@  ",
"  #&&&&&&&&==&&&&&&&&#  ",
" .$&&&&&&&&==&&&&&&&&$. ",
" +$&&&&&&-&==&-&&&&&&$+ ",
" +$&&&&&-=-==-=-&&&&&$+ ",
" .$&&&&&&-====-&&&&&&$. ",
"  #&&&&&&&-==-&&&&&&&#  ",
"  @&&&&&&&&--&&&&&&&&@  ",
"  +$&&&&&&&&&&&&&&&&$+  ",
"   %&&&&&&&&&&&&&&&&%   ",
"   .*&&&&&&&&&&&&&&*.   ",
"    .*&&&&&&&&&&&&*.    ",
"     .%$&&&&&&&&$%.     ",
"       +@#$$$$#@+       ",
"          .++.          ",
"                        "};
