/* XPM */
static char * stick_prelight_xpm[] = {
"24 24 21 1",
" 	c #574F4A",
".	c #5E5652",
"+	c #645C58",
"@	c #6F6864",
"#	c #746D69",
"$	c #77706C",
"%	c #78716D",
"&	c #6C6561",
"*	c #79726E",
"=	c #726B67",
"-	c #B9B8B9",
";	c #E2E3E5",
">	c #BBBBBC",
",	c #DEDFE1",
"'	c #FCFCFC",
")	c #DFE0E2",
"!	c #B8B8B9",
"~	c #E1E2E4",
"{	c #E0E1E2",
"]	c #B8B7B8",
"^	c #DEDEE0",
"                        ",
"          .++.          ",
"       +@#$%%$#@+       ",
"     .&$********$&.     ",
"    .=************=.    ",
"   .=**************=.   ",
"   &****************&   ",
"  +$****************$+  ",
"  @*******-;;>*******@  ",
"  #******,'''')******#  ",
" .$*****-''''''!*****$. ",
" +%*****;''''''~*****%+ ",
" +%*****;''''''{*****%+ ",
" .$*****>'''''']*****$. ",
"  #******)''''^******#  ",
"  @*******!{{]*******@  ",
"  +$****************$+  ",
"   &****************&   ",
"   .=**************=.   ",
"    .=************=.    ",
"     .&$********$&.     ",
"       +@#$%%$#@+       ",
"          .++.          ",
"                        "};
