/* XPM */
static char * stick_inactive_xpm[] = {
"24 24 13 1",
" 	c #574F4A",
".	c #8D8E90",
"+	c #D8D8D8",
"@	c #8F9193",
"#	c #544D49",
"$	c #D4D4D4",
"%	c #D6D6D5",
"&	c #D5D5D5",
"*	c #8C8E90",
"=	c #D7D7D7",
"-	c #D6D6D6",
";	c #8C8D8F",
">	c #B2B4B7",
"                        ",
"                        ",
"                        ",
"                        ",
"                        ",
"                        ",
"                        ",
"                        ",
"          .++@#         ",
"         $%%%%&         ",
"        .%%%%%%*        ",
"        +%%%%%%=        ",
"        +%%%%%%-        ",
"        @%%%%%%;        ",
"        #&%%%%>         ",
"          *==;          ",
"                        ",
"                        ",
"                        ",
"                        ",
"                        ",
"                        ",
"                        ",
"                        "};
