/* XPM */
static char * stick_toggled_active_xpm[] = {
"24 24 14 1",
" 	c #574F4A",
".	c #8D8E90",
"+	c #D6D6D5",
"@	c #8F9193",
"#	c #544D49",
"$	c #D4D4D4",
"%	c #D5D5D5",
"&	c #919395",
"*	c #939597",
"=	c #8C8E90",
"-	c #D8D8D8",
";	c #D7D7D7",
">	c #8C8D8F",
",	c #B2B4B7",
"                        ",
"                        ",
"                        ",
"                        ",
"                        ",
"                        ",
"                        ",
"                        ",
"          .++@#         ",
"         $++++%         ",
"        .+&  *+=        ",
"        -+    +;        ",
"        -+    ++        ",
"        @+*  *+>        ",
"        #%++++,         ",
"          =++>          ",
"                        ",
"                        ",
"                        ",
"                        ",
"                        ",
"                        ",
"                        ",
"                        "};
