/* XPM */
static char * stick_pressed_xpm[] = {
"24 24 20 1",
" 	c #574F4A",
".	c #5A534E",
"+	c #5D5550",
"@	c #635C57",
"#	c #655E59",
"$	c #67605B",
"%	c #615A55",
"&	c #68615C",
"*	c #645D58",
"=	c #B9B8B9",
"-	c #E2E3E5",
";	c #BBBBBC",
">	c #DEDFE1",
",	c #FCFCFC",
"'	c #DFE0E2",
")	c #B8B8B9",
"!	c #E1E2E4",
"~	c #E0E1E2",
"{	c #B8B7B8",
"]	c #DEDEE0",
"                        ",
"          .++.          ",
"       +@#$$$$#@+       ",
"     .%$&&&&&&&&$%.     ",
"    .*&&&&&&&&&&&&*.    ",
"   .*&&&&&&&&&&&&&&*.   ",
"   %&&&&&&&&&&&&&&&&%   ",
"  +$&&&&&&&&&&&&&&&&$+  ",
"  @&&&&&&&=--;&&&&&&&@  ",
"  #&&&&&&>,,,,'&&&&&&#  ",
" .$&&&&&=,,,,,,)&&&&&$. ",
" +$&&&&&-,,,,,,!&&&&&$+ ",
" +$&&&&&-,,,,,,~&&&&&$+ ",
" .$&&&&&;,,,,,,{&&&&&$. ",
"  #&&&&&&',,,,]&&&&&&#  ",
"  @&&&&&&&)~~{&&&&&&&@  ",
"  +$&&&&&&&&&&&&&&&&$+  ",
"   %&&&&&&&&&&&&&&&&%   ",
"   .*&&&&&&&&&&&&&&*.   ",
"    .*&&&&&&&&&&&&*.    ",
"     .%$&&&&&&&&$%.     ",
"       +@#$$$$#@+       ",
"          .++.          ",
"                        "};
