/* XPM */
static char * title_5_active_xpm[] = {
"4 28 2 1",
" 	c #6D635D",
".	c #574F4A",
"    ",
"....",
"....",
"....",
"....",
"....",
"....",
"....",
"....",
"....",
"....",
"....",
"....",
"....",
"....",
"....",
"....",
"....",
"....",
"....",
"....",
"....",
"....",
"....",
"....",
"....",
"....",
"...."};
