/* XPM */
static char * top_left_inactive_xpm[] = {
"7 28 13 1",
" 	c None",
".	c #393331",
"+	c #665D57",
"@	c #6C625C",
"#	c #6D635D",
"$	c #37332F",
"%	c #695F59",
"&	c #5E5650",
"*	c #58504B",
"=	c #574F4A",
"-	c #635A55",
";	c #59504B",
">	c #5D554F",
" .+@###",
"$%&*===",
"-;=====",
">======",
"*======",
"=======",
"=======",
"=======",
"=======",
"=======",
"=======",
"=======",
"=======",
"=======",
"=======",
"=======",
"=======",
"=======",
"=======",
"=======",
"=======",
"=======",
"=======",
"=======",
"=======",
"=======",
"=======",
"======="};
