/* XPM */
static char * top_right_inactive_xpm[] = {
"7 28 13 1",
" 	c None",
".	c #6D635D",
"+	c #6C625C",
"@	c #665D56",
"#	c #413A38",
"$	c #574F4A",
"%	c #58504B",
"&	c #5E5550",
"*	c #685F59",
"=	c #37332F",
"-	c #59504B",
";	c #635A55",
">	c #5D554F",
"...+@# ",
"$$$%&*=",
"$$$$$-;",
"$$$$$$>",
"$$$$$$%",
"$$$$$$$",
"$$$$$$$",
"$$$$$$$",
"$$$$$$$",
"$$$$$$$",
"$$$$$$$",
"$$$$$$$",
"$$$$$$$",
"$$$$$$$",
"$$$$$$$",
"$$$$$$$",
"$$$$$$$",
"$$$$$$$",
"$$$$$$$",
"$$$$$$$",
"$$$$$$$",
"$$$$$$$",
"$$$$$$$",
"$$$$$$$",
"$$$$$$$",
"$$$$$$$",
"$$$$$$$",
"$$$$$$$"};
